<svg width="1707" height="864" viewBox="0 0 1707 864" fill="none" xmlns="http://www.w3.org/2000/svg">
<g filter="url(#filter0_d_105_3)">
<path d="M1904.28 -537.007C1950.62 -563.022 2007.9 -529.947 2008.54 -476.811L2020.27 498C2020.92 552.257 1962.27 586.594 1915.28 559.464L1053.47 61.9021C1006.48 34.7716 1006.89 -33.1948 1054.21 -59.758L1904.28 -537.007Z" fill="#38D39F" fill-opacity="0.7"/>
</g>
<g filter="url(#filter1_d_105_3)">
<path d="M815.872 457.741C861.57 484.863 861.57 551.012 815.873 578.134L-22.4749 1075.7C-69.1365 1103.39 -128.202 1069.76 -128.202 1015.5L-128.202 20.3756C-128.202 -33.8853 -69.1365 -67.5144 -22.475 -39.8206L815.872 457.741Z" fill="#38D39F" fill-opacity="0.7"/>
</g>
<path d="M373.58 242.238L373.403 304.677L162.332 334.056L162.509 271.617L373.58 242.238Z" fill="#30A67E"/>
<path d="M219.827 328.842L219.65 391.281L114.519 330.583L114.696 268.145L219.827 328.842Z" fill="#30A67E"/>
<path d="M337.075 290.661L336.898 353.099L266.339 394.103L266.516 331.665L337.075 290.661" fill="#30A67E"/>
<path d="M266.37 355.714L266.193 418.152L245.508 406.21L245.685 343.772L266.37 355.714Z" fill="#30A67E"/>
<path d="M276.646 349.743L276.47 412.181L266.193 418.152L266.37 355.714L276.646 349.743" fill="#30A67E"/>
<path d="M198.458 371.216L198.282 433.655L172.424 418.725L172.601 356.287L198.458 371.216Z" fill="#30A67E"/>
<path d="M245.685 343.772L245.508 406.21L198.282 433.655L198.458 371.216L245.685 343.772Z" fill="#30A67E"/>
<path d="M373.58 242.238L162.509 271.618L240.658 316.737L311.217 275.733L337.075 290.661L266.516 331.665L276.646 349.743L266.37 355.714L245.685 343.772L198.458 371.216L172.601 356.287L219.827 328.842L114.696 268.145L135.527 256.039L346.463 226.582L373.58 242.238Z" fill="#38D39F"/>
<path d="M534.795 374.168L534.618 436.606C534.648 425.74 526.57 415.636 510.389 406.292C470.972 383.536 424.821 387.51 371.947 418.237C341.103 436.161 325.661 452.699 325.618 467.847L325.794 405.41C325.838 390.262 341.28 373.724 372.124 355.799C424.996 325.071 471.148 321.097 510.566 343.855C526.749 353.197 534.826 363.303 534.795 374.168Z" fill="#30A67E"/>
<path d="M570.158 378.593L569.982 441.032C569.927 460.355 551.639 480.63 515.119 501.853C448.179 540.753 386.411 543.874 329.842 511.213C303.16 495.81 289.844 479.798 289.891 463.182L290.068 400.744C290.021 417.361 303.337 433.371 330.02 448.775C386.589 481.436 448.355 478.316 515.295 439.417C551.817 418.192 570.103 397.917 570.158 378.593Z" fill="#30A67E"/>
<path d="M350.851 436.671C389.24 458.834 435.255 454.345 488.858 423.194C541.73 392.468 548.955 366.02 510.566 343.855C471.148 321.097 424.996 325.071 372.124 355.799C318.522 386.949 311.434 413.913 350.851 436.671V436.671ZM531.409 331.742C587.978 364.401 582.612 400.295 515.295 439.416C448.355 478.316 386.589 481.436 330.02 448.775C272.423 415.524 277.106 379.445 344.046 340.545C411.362 301.425 473.811 298.489 531.409 331.742" fill="#38D39F"/>
<path d="M500.083 646.856L447.025 677.691C446.088 678.234 444.561 678.24 443.619 677.697L390.213 646.862C389.742 646.593 389.508 646.234 389.51 645.876L389.496 650.773C389.495 651.132 389.728 651.489 390.199 651.762L443.606 682.596C444.546 683.138 446.076 683.134 447.009 682.59L500.068 651.756C500.533 651.486 500.765 651.133 500.765 650.779L500.78 645.882C500.779 646.235 500.547 646.588 500.083 646.856" fill="#C93737"/>
<path d="M500.072 644.896C501.01 645.438 501.016 646.318 500.083 646.861L447.024 677.696C446.088 678.238 444.561 678.243 443.618 677.702L390.213 646.867C389.274 646.324 389.278 645.438 390.211 644.896L443.272 614.061C444.205 613.52 445.724 613.52 446.664 614.061L500.072 644.896" fill="#D93B3B"/>
<path d="M479.57 644.008L479.564 643.988C479.588 641.816 478.966 639.652 477.764 637.573L456.941 563.436L433.338 563.467L412.385 637.996C411.298 639.943 410.724 641.963 410.701 643.985L410.695 644.008H410.698C410.651 649.112 413.982 654.212 420.704 658.094C434.111 665.834 455.916 665.795 469.407 658.006C476.119 654.132 479.5 649.07 479.563 644.008H479.57" fill="#E83F3F"/>
<path d="M436.632 569.561C431.969 566.869 431.992 562.487 436.685 559.778C441.381 557.068 448.967 557.054 453.632 559.746C458.297 562.44 458.272 566.82 453.579 569.531C448.885 572.24 441.297 572.255 436.632 569.561" fill="#C93737"/>
<path d="M475.593 629.848L471.76 616.198C470.419 617.573 468.736 618.868 466.705 620.039C454.716 626.962 435.338 626.996 423.424 620.118C421.437 618.971 419.787 617.704 418.469 616.359L414.653 629.928C415.253 633.902 418.171 637.772 423.424 640.807C435.338 647.685 454.716 647.65 466.705 640.729C471.979 637.684 474.938 633.813 475.593 629.848" fill="#F2F2F2"/>
<path d="M462.591 583.547C452.112 587.801 438.123 587.847 427.659 583.669L422.565 601.788C422.854 601.969 423.118 602.16 423.424 602.338C435.339 609.217 454.717 609.181 466.706 602.26C467.048 602.061 467.348 601.848 467.672 601.643L462.591 583.547Z" fill="#F2F2F2"/>
<path d="M350.851 436.671C389.24 458.834 435.255 454.345 488.858 423.194C541.73 392.468 548.955 366.02 510.566 343.855C471.148 321.097 424.996 325.071 372.124 355.799C318.522 386.949 311.434 413.913 350.851 436.671V436.671ZM531.409 331.742C587.978 364.401 582.612 400.295 515.295 439.416C448.355 478.316 386.589 481.436 330.02 448.775C272.423 415.524 277.106 379.445 344.046 340.545C411.362 301.425 473.811 298.489 531.409 331.742" fill="#38D39F"/>
<path d="M450.474 329.491L450.026 441.575C452.667 440.633 455.333 439.598 458.015 438.504L458.451 329.353C455.813 329.309 453.156 329.351 450.474 329.491Z" fill="#E2E2E2"/>
<path d="M458.451 329.353L458.532 309.12C455.883 308.958 453.223 308.886 450.556 308.86L450.474 329.491C453.156 329.351 455.813 329.309 458.451 329.353" fill="#E2E2E2"/>
<path d="M401.415 450.486C416.722 450.658 432.926 447.689 450.026 441.576L450.474 329.491C435.032 330.298 418.824 334.16 401.852 341.062L401.415 450.486Z" fill="#F2F2F2"/>
<path d="M450.474 329.491L450.556 308.86C434.675 308.698 418.474 310.913 401.953 315.505L401.852 341.062C418.824 334.16 435.032 330.298 450.474 329.491Z" fill="#F2F2F2"/>
<path d="M306.654 258.639L314.266 254.215C314.257 257.689 316.7 261.926 319.716 263.665L312.104 268.089C309.089 266.348 306.645 262.113 306.654 258.639Z" fill="#FDE169"/>
<path d="M306.678 250.387L314.29 245.963L314.266 254.215L306.654 258.639L306.678 250.387Z" fill="#FDE169"/>
<path d="M306.872 181.847L314.484 177.423L314.385 212.129L306.774 216.553L306.872 181.847Z" fill="#FDE169"/>
<path d="M353.616 292.056L361.228 287.632L391.431 305.069L383.819 309.493L353.616 292.056Z" fill="#FDE169"/>
<path d="M413.263 326.492L420.877 322.07L451.079 339.507L443.467 343.931L413.263 326.492Z" fill="#FDE169"/>
<path d="M472.911 360.93L480.523 356.506L510.727 373.945L503.115 378.369L472.911 360.93Z" fill="#FDE169"/>
<path d="M528.441 260.857L413.264 326.492L443.467 343.931L545.945 285.532L545.85 319.365L472.911 360.93L503.115 378.369L545.751 354.072L545.631 396.611C545.621 400.086 543.16 401.488 540.136 399.742L312.104 268.089C309.089 266.348 306.645 262.113 306.654 258.639L306.992 139.297C307.002 135.832 309.463 134.431 312.478 136.17L349.508 157.55L306.872 181.847L306.774 216.553L379.71 174.988L409.155 191.988L306.678 250.387L306.654 258.639C306.645 262.113 309.089 266.348 312.104 268.089L324.171 275.057L439.349 209.42L468.795 226.419L353.616 292.056L383.819 309.493L498.997 243.858L528.441 260.857" fill="#FDE169"/>
<path d="M312.104 268.089L319.715 263.665L331.783 270.633L324.171 275.057L312.104 268.089Z" fill="#FDE169"/>
<path d="M379.71 174.988L306.774 216.553L306.872 181.847L349.508 157.55L379.71 174.988" fill="#58595B"/>
<path d="M439.349 209.42L324.171 275.057L312.104 268.089C309.089 266.348 306.645 262.113 306.654 258.639L306.678 250.387L409.155 191.987L439.349 209.42" fill="#58595B"/>
<path d="M498.997 243.858L383.819 309.493L353.616 292.056L468.795 226.419L498.997 243.858Z" fill="#58595B"/>
<path d="M545.85 319.365L545.751 354.072L503.115 378.369L472.911 360.93L545.85 319.365" fill="#58595B"/>
<path d="M540.509 267.825C543.533 269.569 545.978 273.805 545.968 277.269L545.945 285.532L443.467 343.931L413.263 326.492L528.441 260.857L540.509 267.825" fill="#58595B"/>
<path d="M548.113 263.401L536.045 256.433L506.601 239.434L476.398 221.997L446.953 204.996L416.76 187.563L387.315 170.564L357.111 153.127L320.082 131.748C318.564 130.872 317.188 130.792 316.193 131.37L308.581 135.793C309.577 135.216 310.952 135.294 312.469 136.17L349.499 157.55L379.703 174.988L409.147 191.987L439.341 209.42L468.786 226.419L498.989 243.858L528.434 260.857L540.501 267.825C543.525 269.569 545.971 273.805 545.96 277.269L545.937 285.532L545.842 319.365L545.743 354.072L545.622 396.611C545.618 398.336 545.007 399.552 544.024 400.123L551.636 395.7C552.621 395.129 553.23 393.914 553.234 392.187L553.355 349.648L553.454 314.943L553.549 281.109L553.574 272.846C553.584 269.381 551.137 265.147 548.113 263.401" fill="#ECD262"/>
<path d="M515.687 367.268L333.273 261.953C332.141 261.298 331.442 260.089 331.442 258.78V171.819C331.442 169.001 334.494 167.239 336.935 168.649L519.349 273.964C520.482 274.617 521.181 275.826 521.181 277.135V364.097C521.181 366.915 518.128 368.677 515.687 367.268" fill="#E83F3F"/>
<path d="M355.073 216.946V196.246L358.875 198.442V219.139C358.875 225.615 361.682 230.474 367.297 233.716C372.912 236.958 375.721 235.342 375.721 228.866V208.169L379.521 210.361V231.06C379.521 239.893 375.447 241.957 367.297 237.252C359.149 232.546 355.073 225.779 355.073 216.946" fill="white"/>
<path d="M386.301 247.988V214.276L390.102 216.471L408.077 254.006V226.85L411.673 228.925V262.636L407.873 260.442L389.896 222.67V250.064L386.301 247.988Z" fill="white"/>
<path d="M429.342 269.301C436.532 273.452 440.128 270.781 440.128 261.289C440.128 253.023 436.532 246.813 429.342 242.663L422.46 238.689V265.327L429.342 269.301ZM418.659 266.669V232.957L429.342 239.125C439.067 244.74 443.929 252.859 443.929 263.483C443.929 275.334 439.067 278.452 429.342 272.837L418.659 266.669Z" fill="white"/>
<path d="M468.683 261.839V265.375L453.274 256.48V267.797L467.964 276.276V279.813L453.274 271.333V283.12L468.993 292.194V295.73L449.476 284.461V250.75L468.683 261.839" fill="white"/>
<path d="M474.745 299.05V265.339L487.277 272.575C492.865 275.801 495.659 280.11 495.659 285.5C495.659 289.885 492.926 291.553 487.462 290.503L497.548 312.216L492.536 309.322L483.188 288.767V285.915C488.805 288.135 491.612 287.281 491.612 283.352C491.612 280.24 490.05 277.782 486.927 275.979L478.544 271.14V301.245L474.745 299.05Z" fill="white"/>
<path d="M362.52 261.073C361.376 260.836 360.137 260.335 358.807 259.567C354.163 256.886 351.843 252.9 351.843 247.608C351.843 242.601 354.163 241.437 358.807 244.117C360.137 244.885 361.376 245.813 362.52 246.9V248.606C361.376 247.447 360.199 246.52 358.991 245.823C355.37 243.732 353.561 244.658 353.561 248.6C353.561 252.826 355.37 255.985 358.991 258.076C360.199 258.773 361.376 259.203 362.52 259.368V261.073Z" fill="white"/>
<path d="M371.555 265.328C374.724 267.159 376.309 266.018 376.309 261.904C376.309 257.848 374.724 254.906 371.555 253.076C368.318 251.206 366.699 252.3 366.699 256.356C366.699 260.47 368.318 263.46 371.555 265.328V265.328ZM364.888 255.374C364.888 250.211 367.111 248.911 371.555 251.477C375.932 254.005 378.119 257.85 378.119 263.013C378.119 268.15 375.932 269.454 371.555 266.927C367.111 264.36 364.888 260.51 364.888 255.374Z" fill="white"/>
<path d="M380.813 272.164V256.929L382.531 257.921L390.655 274.886V262.612L392.281 263.55V278.785L390.563 277.795L382.437 260.723V273.104L380.813 272.164Z" fill="white"/>
<path d="M395.252 279.969V278.157C396.645 279.529 398.149 280.682 399.764 281.616C402.049 282.934 403.191 282.634 403.191 280.717C403.191 279.082 402.349 277.779 400.666 276.808L398.957 275.82C396.176 274.216 394.787 272.028 394.787 269.259C394.787 266.347 396.567 265.918 400.126 267.972C401.675 268.868 403.112 269.91 404.444 271.105V272.916C403.112 271.58 401.675 270.465 400.126 269.571C397.713 268.178 396.505 268.404 396.505 270.251C396.505 271.884 397.322 273.174 398.957 274.116L400.666 275.102C403.494 276.735 404.909 278.938 404.909 281.708C404.909 284.691 403.194 285.193 399.764 283.213C398.149 282.281 396.645 281.199 395.252 279.969" fill="white"/>
<path d="M416.376 277.461V279.06L412.197 276.648V290.285L410.479 289.294V275.655L406.302 273.243V271.645L416.376 277.461Z" fill="white"/>
<path d="M418.42 293.877V278.64L424.083 281.911C426.609 283.369 427.871 285.317 427.871 287.752C427.871 289.735 426.636 290.488 424.166 290.014L428.725 299.827L426.459 298.519L422.234 289.23V287.94C424.774 288.944 426.042 288.558 426.042 286.782C426.042 285.376 425.336 284.266 423.924 283.45L420.136 281.263V294.868L418.42 293.877" fill="white"/>
<path d="M430.443 294.938V285.582L432.161 286.575V295.93C432.161 298.856 433.429 301.053 435.969 302.518C438.505 303.983 439.775 303.251 439.775 300.325V290.97L441.493 291.962V301.318C441.493 305.31 439.65 306.242 435.969 304.116C432.284 301.989 430.443 298.93 430.443 294.938Z" fill="white"/>
<path d="M454.585 314.225C453.441 313.99 452.202 313.488 450.871 312.719C446.227 310.039 443.906 306.054 443.906 300.762C443.906 295.754 446.227 294.589 450.871 297.271C452.202 298.039 453.441 298.966 454.585 300.054V301.759C453.441 300.6 452.265 299.672 451.058 298.975C447.435 296.885 445.626 297.81 445.626 301.753C445.626 305.98 447.435 309.139 451.058 311.229C452.265 311.926 453.441 312.357 454.585 312.52V314.225" fill="white"/>
<path d="M466.378 306.33V307.928L462.198 305.515V319.153L460.481 318.162V304.524L456.304 302.11V300.513L466.378 306.33Z" fill="white"/>
<path d="M470.418 308.661V323.899L468.698 322.906V307.669L470.418 308.661Z" fill="white"/>
<path d="M480.055 327.971C483.225 329.8 484.809 328.659 484.809 324.547C484.809 320.49 483.225 317.547 480.055 315.717C476.819 313.849 475.198 314.941 475.198 318.997C475.198 323.111 476.819 326.102 480.055 327.971V327.971ZM473.389 318.017C473.389 312.852 475.611 311.554 480.055 314.119C484.432 316.646 486.618 320.491 486.618 325.656C486.618 330.791 484.432 332.097 480.055 329.57C475.611 327.003 473.389 323.152 473.389 318.017Z" fill="white"/>
<path d="M489.314 334.807V319.57L491.029 320.562L499.156 337.527V325.253L500.78 326.192V341.428L499.062 340.436L490.938 323.365V335.745L489.314 334.807" fill="white"/>
<path d="M263.536 520.015L263.552 526.011L277.569 534.156L277.552 528.16L263.536 520.015Z" fill="#E8E8E8"/>
<path d="M280.638 538.452L280.621 532.454C280.617 530.898 279.594 529.348 277.552 528.16L277.569 534.156C279.611 535.344 280.634 536.896 280.638 538.452" fill="#E8E8E8"/>
<path d="M300.365 539.2L300.381 545.197L304.658 536.059L304.642 530.063L300.365 539.2Z" fill="#E8E8E8"/>
<path d="M265.757 552.512L265.775 558.508L281.565 556.062L281.549 550.065L265.757 552.512" fill="#E8E8E8"/>
<path d="M243.452 539.549L243.468 545.545L265.775 558.508L265.757 552.512L243.452 539.549" fill="#E8E8E8"/>
<path d="M281.549 550.065L281.565 556.062L338.397 589.088L338.38 583.091L281.549 550.065Z" fill="#E8E8E8"/>
<path d="M358.123 589.836L358.14 595.833C358.135 594.259 359.176 592.68 361.259 591.478C365.403 589.084 372.086 589.084 376.198 591.474L376.182 585.477C372.07 583.088 365.387 583.088 361.241 585.482C359.158 586.683 358.119 588.262 358.123 589.836Z" fill="#E8E8E8"/>
<path d="M390.199 593.624L390.216 599.62L395.31 588.739L395.293 582.742L390.199 593.624Z" fill="#E8E8E8"/>
<path d="M376.182 585.477L376.198 591.474L390.216 599.62L390.199 593.624L376.182 585.477Z" fill="#E8E8E8"/>
<path d="M334.103 592.23L334.12 598.226L356.425 611.188L356.408 605.191L334.103 592.23Z" fill="#E8E8E8"/>
<path d="M356.408 605.191L356.425 611.188L375.225 608.275L375.209 602.278L356.408 605.191Z" fill="#E8E8E8"/>
<path d="M248.547 528.669L243.452 539.549L265.757 552.512L281.549 550.065L338.38 583.091L334.103 592.23L356.408 605.191L375.209 602.278L361.193 594.131C357.081 591.742 357.102 587.871 361.241 585.482C365.387 583.088 372.07 583.088 376.182 585.477L390.199 593.624L395.293 582.742L372.986 569.779L357.196 572.228L300.365 539.2L304.642 530.063L282.337 517.1L263.536 520.015L277.552 528.16C281.664 530.551 281.643 534.422 277.497 536.814C273.358 539.203 266.675 539.203 262.563 536.814L248.547 528.669" fill="#F4F4F4"/>
<path d="M40.1001 398.538L40.0577 413.389L40.0319 407.997L40.0728 393.144L40.1001 398.538" fill="#E2E2E2"/>
<path d="M40.1305 403.927L40.0881 418.779L40.0577 413.389L40.1002 398.538L40.1305 403.927" fill="#E2E2E2"/>
<path d="M129.591 383.495L129.55 398.346C129.548 398.615 129.401 398.885 129.101 399.111L129.144 384.258C129.444 384.032 129.591 383.763 129.591 383.495Z" fill="#E8E8E8"/>
<path d="M136.613 403.927L136.571 418.778C136.574 419.414 135.763 419.955 134.672 420.035L134.715 405.183C135.804 405.103 136.616 404.563 136.613 403.927Z" fill="#E8E8E8"/>
<path d="M129.762 413.595L129.719 428.446C129.718 428.768 129.504 429.09 129.086 429.332L129.129 414.481C129.547 414.237 129.762 413.916 129.762 413.595Z" fill="#E8E8E8"/>
<path d="M46.8818 398.329L46.9242 383.478C46.9242 383.751 47.0757 384.026 47.3863 384.26L47.3439 399.111C47.0348 398.879 46.8818 398.603 46.8818 398.329Z" fill="#E8E8E8"/>
<path d="M129.144 384.258L129.101 399.111L120.376 405.68L120.418 390.829L129.144 384.258Z" fill="#E8E8E8"/>
<path d="M56.1767 390.829L56.1343 405.682L47.3437 399.111L47.3861 384.26L56.1767 390.829Z" fill="#E8E8E8"/>
<path d="M109.017 398.597L108.975 413.448C108.984 410.363 106.948 407.272 102.872 404.919C94.7723 400.244 81.6773 400.244 73.6307 404.919C69.6338 407.242 67.6339 410.281 67.6248 413.327L67.6672 398.476C67.6763 395.43 69.6762 392.391 73.6731 390.069C81.7197 385.392 94.8147 385.392 102.914 390.069C106.99 392.422 109.026 395.511 109.017 398.597Z" fill="#E8E8E8"/>
<path d="M42.0425 405.183L42.0001 420.035C41.5077 419.998 41.0683 419.866 40.735 419.673C40.3365 419.445 40.0895 419.126 40.088 418.779L40.1304 403.927C40.1319 404.276 40.3774 404.592 40.7774 404.822C41.1092 405.015 41.5486 405.145 42.0425 405.183Z" fill="#E8E8E8"/>
<path d="M134.715 405.183L134.672 420.035L120.467 421.095L120.509 406.242L134.715 405.183Z" fill="#E8E8E8"/>
<path d="M54.2676 406.242L54.2252 421.095L40 420.035L40.0424 405.183L54.2676 406.242Z" fill="#E8E8E8"/>
<path d="M47.0513 428.434L47.0938 413.583C47.0922 413.912 47.3104 414.236 47.7377 414.483L47.6952 429.335C47.268 429.088 47.0513 428.761 47.0513 428.434" fill="#E8E8E8"/>
<path d="M129.129 414.481L129.086 429.332L122.521 433.147L122.564 418.296L129.129 414.481Z" fill="#E8E8E8"/>
<path d="M54.3404 418.296L54.2995 433.147L47.6952 429.335L47.7376 414.483L54.3404 418.296Z" fill="#E8E8E8"/>
<path d="M122.564 418.296L122.521 433.147L115.961 436.959L116.003 422.108L122.564 418.296Z" fill="#E8E8E8"/>
<path d="M113.125 422.213L113.082 437.065L101.71 431.994L101.752 417.142L113.125 422.213Z" fill="#E8E8E8"/>
<path d="M60.9446 422.108L60.9022 436.959L54.2994 433.147L54.3403 418.296L60.9446 422.108Z" fill="#E8E8E8"/>
<path d="M75.1428 417.14L75.1004 431.991L63.7856 437.068L63.8281 422.216L75.1428 417.14Z" fill="#E8E8E8"/>
<path d="M116.003 422.108L115.961 436.959C115.187 437.409 113.958 437.454 113.082 437.065L113.125 422.213C114 422.604 115.229 422.558 116.003 422.108" fill="#E8E8E8"/>
<path d="M63.8281 422.216L63.7857 437.068C62.919 437.455 61.6827 437.409 60.9025 436.959L60.9449 422.108C61.7236 422.56 62.9615 422.604 63.8281 422.216" fill="#E8E8E8"/>
<path d="M101.752 417.142L101.71 431.994L99.9251 440.229L99.9675 425.376L101.752 417.142Z" fill="#E8E8E8"/>
<path d="M77.0169 425.376L76.976 440.229L75.1003 431.991L75.1427 417.14L77.0169 425.376" fill="#E8E8E8"/>
<path d="M99.9675 425.376L99.9251 440.229C99.7888 440.86 98.8646 441.329 97.7661 441.33L97.8085 426.478C98.9054 426.478 99.8311 426.008 99.9675 425.376Z" fill="#E8E8E8"/>
<path d="M97.8087 426.478L97.7663 441.33L88.456 441.332L88.4984 426.479L97.8087 426.478" fill="#E8E8E8"/>
<path d="M88.4983 426.479L88.4559 441.332H79.1501L79.1911 426.479H88.4983Z" fill="#E8E8E8"/>
<path d="M79.191 426.479L79.1501 441.332C78.5516 441.332 78.0017 441.191 77.6032 440.96C77.2699 440.768 77.0411 440.513 76.976 440.229L77.0169 425.376C77.0835 425.661 77.3123 425.916 77.6456 426.108C78.0441 426.34 78.5926 426.479 79.191 426.479Z" fill="#E8E8E8"/>
<path d="M73.7717 407.004C81.8714 411.68 94.9619 411.683 103.01 407.006C111.057 402.329 111.014 394.744 102.915 390.069C94.8149 385.391 81.7199 385.391 73.6733 390.069C65.6251 394.746 65.672 402.327 73.7717 407.004ZM129.3 412.813C129.976 413.319 129.902 414.031 129.129 414.481L122.564 418.296L116.004 422.108C115.229 422.558 114.001 422.604 113.125 422.213L101.753 417.142L99.9677 425.376C99.8314 426.008 98.9056 426.478 97.8087 426.478L88.4985 426.479H79.1912C78.5928 426.479 78.0443 426.34 77.6459 426.108C77.3125 425.916 77.0838 425.661 77.0171 425.376L75.1429 417.14L63.8282 422.216C62.9615 422.604 61.7237 422.56 60.9449 422.108L54.3406 418.296L47.7379 414.483C46.9591 414.034 46.8773 413.318 47.547 412.816L56.2678 406.242L42.0426 405.183C41.5487 405.145 41.1093 405.015 40.7775 404.822C40.3775 404.592 40.1321 404.276 40.1306 403.927L40.1003 398.538L40.073 393.144C40.07 392.509 40.879 391.971 41.9684 391.891L56.1769 390.829L47.3864 384.26C46.7106 383.754 46.7849 383.042 47.5591 382.592L54.1194 378.78L60.6828 374.963C61.457 374.515 62.6858 374.469 63.5615 374.859L74.9338 379.93L76.7156 371.698C76.8519 371.066 77.7792 370.594 78.8776 370.594H88.1833L97.4951 370.592C98.0921 370.592 98.6405 370.733 99.0375 370.962C99.3723 371.154 99.5996 371.41 99.6647 371.698L101.543 379.931L112.863 374.859C113.726 374.469 114.96 374.516 115.738 374.966L122.341 378.778L128.945 382.592C129.724 383.042 129.809 383.755 129.144 384.258L120.419 390.829L134.639 391.89C135.136 391.928 135.579 392.059 135.912 392.252C136.31 392.481 136.554 392.797 136.557 393.144L136.583 398.538L136.613 403.927C136.616 404.563 135.804 405.103 134.715 405.183L120.509 406.242L129.3 412.813" fill="#F4F4F4"/>
<path d="M211.806 301.527L177.144 212.009C176.112 209.35 174.304 207.276 172.491 206.229C170.679 205.182 168.865 205.167 167.821 206.628L132.765 255.892C130.679 258.812 133.256 265.465 137.395 267.856L207.124 308.113C211.265 310.504 213.869 306.843 211.806 301.527" fill="#E83F3F"/>
<path d="M220.716 296.35L186.054 206.831C185.022 204.173 183.213 202.098 181.401 201.052C180.015 200.251 178.625 200.054 177.583 200.66L168.673 205.837C169.717 205.231 171.104 205.428 172.491 206.229C174.304 207.276 176.112 209.35 177.143 212.009L211.806 301.527C213.104 304.871 212.554 307.56 210.938 308.499L219.848 303.322C221.465 302.383 222.015 299.694 220.716 296.35" fill="#C93737"/>
<path d="M169.327 277.437L169.344 271.76L175.119 275.095L175.103 280.772L169.327 277.437Z" fill="white"/>
<path d="M169.451 233.571L175.227 236.904L175.135 269.416L169.359 266.083L169.451 233.571Z" fill="white"/>
<path d="M746.13 457.329L745.953 519.768L534.883 549.147L535.059 486.708L746.13 457.329Z" fill="#30A67E"/>
<path d="M592.377 543.933L592.199 606.372L487.068 545.673L487.246 483.236L592.377 543.933Z" fill="#30A67E"/>
<path d="M709.625 505.753L709.449 568.191L638.889 609.194L639.066 546.756L709.625 505.753Z" fill="#30A67E"/>
<path d="M638.922 570.805L638.744 633.243L618.057 621.3L618.235 558.862L638.922 570.805Z" fill="#30A67E"/>
<path d="M649.197 564.834L649.02 627.272L638.745 633.243L638.922 570.805L649.197 564.834Z" fill="#30A67E"/>
<path d="M571.009 586.307L570.832 648.746L544.974 633.816L545.151 571.378L571.009 586.307Z" fill="#30A67E"/>
<path d="M618.235 558.861L618.057 621.3L570.832 648.746L571.009 586.307L618.235 558.861Z" fill="#30A67E"/>
<path d="M746.13 457.329L535.059 486.708L613.208 531.828L683.767 490.823L709.625 505.753L639.066 546.756L649.197 564.834L638.922 570.805L618.235 558.862L571.009 586.307L545.151 571.378L592.377 543.933L487.246 483.236L508.077 471.13L719.013 441.674L746.13 457.329Z" fill="#38D39F"/>
<path d="M213.457 516.437C190.826 529.504 154.019 529.437 131.247 516.291C108.473 503.141 108.358 481.892 130.989 468.826C153.62 455.76 190.426 455.826 213.2 468.974C235.973 482.122 236.088 503.371 213.457 516.437" fill="#ECD262"/>
<path d="M230.355 492.893H114.091V479.068H230.355V492.893Z" fill="#ECD262"/>
<path d="M213.457 502.062C190.826 515.128 154.019 515.062 131.247 501.914C108.473 488.767 108.358 467.515 130.989 454.451C153.62 441.385 190.426 441.451 213.2 454.599C235.973 467.747 236.088 488.998 213.457 502.062Z" fill="#FDE169"/>
<path d="M170.057 465.379V473.507L166.429 473.501L166.43 470.48L166.433 468.394L166.435 465.375L170.057 465.379" fill="white"/>
<path d="M174.265 487.913L171.062 489.751L169.689 488.958L171.291 488.039L168.088 486.192L166.486 487.108L160.714 483.777L162.314 482.857L159.112 481.009L157.511 481.927L152.244 478.888L155.449 477.05L174.265 487.913Z" fill="white"/>
<path d="M175.306 468.409L175.307 470.497L170.057 470.486L170.056 468.4L175.306 468.409Z" fill="white"/>
<path d="M180.463 479.515L185.711 479.525V481.613L180.463 481.603V479.515Z" fill="white"/>
<path d="M189.338 476.512L189.34 479.533L189.338 481.621V484.64L185.713 484.634L185.711 481.613V479.525V476.504L189.338 476.512Z" fill="white"/>
<path d="M161.185 468.387L166.433 468.394L166.432 470.48L161.18 470.471L161.185 468.387Z" fill="white"/>
<path d="M149.887 491.064C162.2 498.175 182.234 498.211 194.547 491.149C206.861 484.087 206.861 472.558 194.547 465.449C182.234 458.34 162.202 458.302 149.888 465.364C137.575 472.429 137.575 483.957 149.887 491.064V491.064ZM197.756 463.608C211.836 471.738 211.836 484.925 197.755 493.002C183.675 501.078 160.765 501.031 146.686 492.902C132.606 484.774 132.606 471.592 146.686 463.517C160.767 455.44 183.677 455.479 197.756 463.608" fill="white"/>
<path d="M171.291 488.039L169.689 488.958L167.118 490.433C163.761 492.358 158.299 492.348 154.94 490.41C151.582 488.471 151.582 485.327 154.94 483.403L157.511 481.927L159.112 481.009L162.314 482.857L160.714 483.777L158.143 485.249C156.552 486.163 156.552 487.654 158.143 488.574C159.733 489.49 162.324 489.496 163.917 488.584L166.486 487.108L168.088 486.192L171.291 488.039" fill="white"/>
<path d="M194.59 479.542V481.63L189.339 481.621L189.34 479.533L194.59 479.542" fill="white"/>
<path d="M651.909 431.228C653.62 432.215 655.289 432.979 656.904 433.53C655.042 434.614 653.18 435.694 651.318 436.776C649.703 436.226 648.032 435.461 646.323 434.474C647.999 433.5 650.234 432.202 651.909 431.228Z" fill="#E83F3F"/>
<path d="M627.177 388.39C627.131 404.11 638.228 423.329 651.909 431.227L646.323 434.474C632.642 426.575 621.547 407.357 621.591 391.635C621.613 383.826 624.381 378.325 628.837 375.734L634.424 372.489C629.968 375.078 627.198 380.58 627.177 388.39Z" fill="#E83F3F"/>
<path d="M635.305 417.128L640.891 413.881C643.988 418.261 647.805 422.008 651.929 424.39L646.343 427.635C642.22 425.255 638.404 421.507 635.305 417.128" fill="white"/>
<path d="M627.55 395.076L633.134 391.829C633.122 396.576 634.445 401.729 636.692 406.609L631.107 409.856C628.859 404.976 627.536 399.823 627.55 395.076" fill="white"/>
<path d="M665.336 425.691L659.751 428.937C656.32 430.93 651.573 430.655 646.343 427.635L651.929 424.39C657.161 427.409 661.907 427.684 665.336 425.691Z" fill="white"/>
<path d="M633.056 382.992L638.64 379.746C635.255 381.714 633.151 385.895 633.134 391.829L627.55 395.076C627.566 389.14 629.668 384.96 633.056 382.992Z" fill="white"/>
<path d="M656.904 433.53C661.789 435.199 666.162 434.915 669.555 432.943L663.971 436.189C660.577 438.16 656.204 438.445 651.318 436.776C653.18 435.694 655.042 434.614 656.904 433.53" fill="#E83F3F"/>
<path d="M633.055 382.992L638.64 379.746C642.072 377.752 646.82 378.028 652.052 381.051L646.465 384.296C641.232 381.275 636.484 380.998 633.055 382.992Z" fill="#E83F3F"/>
<path d="M628.837 375.736L634.423 372.489C638.937 369.866 645.187 370.229 652.07 374.204L646.485 377.449C639.601 373.475 633.352 373.112 628.837 375.736" fill="white"/>
<path d="M670.845 413.601C670.828 419.539 668.725 423.722 665.336 425.691L659.751 428.937C663.139 426.969 665.242 422.785 665.26 416.848C665.272 412.109 663.95 406.948 661.703 402.076L667.288 398.83C669.537 403.703 670.859 408.862 670.845 413.601Z" fill="#E83F3F"/>
<path d="M635.305 417.128L640.891 413.881L667.287 398.83L661.703 402.076L635.305 417.128" fill="#E83F3F"/>
<path d="M631.107 409.856L636.692 406.609L663.097 391.561L657.511 394.808L631.107 409.856" fill="white"/>
<path d="M652.052 381.051C656.174 383.431 659.992 387.17 663.097 391.561L657.511 394.808C654.405 390.417 650.59 386.676 646.465 384.296C648.141 383.322 650.376 382.023 652.052 381.051Z" fill="#E83F3F"/>
<path d="M669.556 432.943L663.971 436.189C668.428 433.599 671.196 428.097 671.218 420.289C671.262 404.568 660.166 385.348 646.485 377.449L652.07 374.204C665.753 382.102 676.848 401.321 676.804 417.042C676.781 424.85 674.014 430.352 669.556 432.943" fill="white"/>
<path d="M646.343 427.635C656.741 433.638 665.225 428.797 665.26 416.848C665.272 412.109 663.95 406.948 661.703 402.076L635.305 417.128C638.404 421.507 642.22 425.255 646.343 427.635V427.635ZM627.55 395.076C627.536 399.823 628.859 404.976 631.107 409.856L657.511 394.808C654.405 390.417 650.59 386.676 646.466 384.296C636.067 378.293 627.583 383.128 627.55 395.076ZM646.485 377.449C660.166 385.348 671.262 404.568 671.218 420.289C671.174 436.008 660.004 442.374 646.323 434.474C632.642 426.575 621.547 407.357 621.591 391.635C621.636 375.915 632.804 369.551 646.485 377.449Z" fill="white"/>
<path d="M635.305 417.128L661.703 402.076C663.95 406.948 665.272 412.109 665.26 416.848C665.225 428.797 656.741 433.638 646.343 427.635C642.22 425.255 638.404 421.507 635.305 417.128" fill="#E83F3F"/>
<path d="M646.466 384.296C650.59 386.676 654.405 390.417 657.511 394.808L631.107 409.856C628.859 404.976 627.536 399.823 627.55 395.076C627.583 383.128 636.067 378.293 646.466 384.296Z" fill="#E83F3F"/>
<path d="M646.323 434.474C660.004 442.374 671.174 436.008 671.218 420.289C671.262 404.568 660.166 385.348 646.485 377.449C632.804 369.551 621.636 375.915 621.591 391.635C621.547 407.357 632.642 426.575 646.323 434.474ZM678.525 381.207C681.631 382.999 684.14 387.345 684.131 390.914L683.922 464.452C683.911 468.018 681.385 469.459 678.279 467.665L614.283 430.717C611.177 428.925 608.668 424.579 608.679 421.01L608.888 347.472C608.897 343.904 611.423 342.465 614.527 344.257L678.525 381.207Z" fill="#E83F3F"/>
<path d="M684.111 377.96L620.115 341.012C618.55 340.11 617.135 340.025 616.112 340.619L610.528 343.866C611.549 343.272 612.965 343.355 614.527 344.257L678.525 381.207C681.631 382.999 684.14 387.344 684.131 390.914L683.922 464.45C683.917 466.224 683.291 467.471 682.282 468.058L687.867 464.811C688.876 464.226 689.503 462.978 689.506 461.205L689.715 387.667C689.726 384.099 687.217 379.754 684.111 377.96Z" fill="#C93737"/>
<defs>
<filter id="filter0_d_105_3" x="973.474" y="-591.067" width="1101.8" height="1215.02" filterUnits="userSpaceOnUse" color-interpolation-filters="sRGB">
<feFlood flood-opacity="0" result="BackgroundImageFix"/>
<feColorMatrix in="SourceAlpha" type="matrix" values="0 0 0 0 0 0 0 0 0 0 0 0 0 0 0 0 0 0 127 0" result="hardAlpha"/>
<feOffset dx="5" dy="5"/>
<feGaussianBlur stdDeviation="25"/>
<feColorMatrix type="matrix" values="0 0 0 0 0.501961 0 0 0 0 0.74902 0 0 0 0 1 0 0 0 0.5 0"/>
<feBlend mode="normal" in2="BackgroundImageFix" result="effect1_dropShadow_105_3"/>
<feBlend mode="normal" in="SourceGraphic" in2="effect1_dropShadow_105_3" result="shape"/>
</filter>
<filter id="filter1_d_105_3" x="-173.202" y="-94.7313" width="1078.35" height="1235.34" filterUnits="userSpaceOnUse" color-interpolation-filters="sRGB">
<feFlood flood-opacity="0" result="BackgroundImageFix"/>
<feColorMatrix in="SourceAlpha" type="matrix" values="0 0 0 0 0 0 0 0 0 0 0 0 0 0 0 0 0 0 127 0" result="hardAlpha"/>
<feOffset dx="5" dy="5"/>
<feGaussianBlur stdDeviation="25"/>
<feColorMatrix type="matrix" values="0 0 0 0 0.501961 0 0 0 0 0.74902 0 0 0 0 1 0 0 0 0.5 0"/>
<feBlend mode="normal" in2="BackgroundImageFix" result="effect1_dropShadow_105_3"/>
<feBlend mode="normal" in="SourceGraphic" in2="effect1_dropShadow_105_3" result="shape"/>
</filter>
</defs>
</svg>
